<svg width="24" height="24" viewBox="0 0 24 24" fill="none" xmlns="http://www.w3.org/2000/svg">
<path d="M19.5 3H17.25V2.25C17.25 2.05109 17.171 1.86032 17.0303 1.71967C16.8897 1.57902 16.6989 1.5 16.5 1.5C16.3011 1.5 16.1103 1.57902 15.9697 1.71967C15.829 1.86032 15.75 2.05109 15.75 2.25V3H8.25V2.25C8.25 2.05109 8.17098 1.86032 8.03033 1.71967C7.88968 1.57902 7.69891 1.5 7.5 1.5C7.30109 1.5 7.11032 1.57902 6.96967 1.71967C6.82902 1.86032 6.75 2.05109 6.75 2.25V3H4.5C4.10218 3 3.72064 3.15804 3.43934 3.43934C3.15804 3.72064 3 4.10218 3 4.5V19.5C3 19.8978 3.15804 20.2794 3.43934 20.5607C3.72064 20.842 4.10218 21 4.5 21H19.5C19.8978 21 20.2794 20.842 20.5607 20.5607C20.842 20.2794 21 19.8978 21 19.5V4.5C21 4.10218 20.842 3.72064 20.5607 3.43934C20.2794 3.15804 19.8978 3 19.5 3ZM6.75 6V5.25C6.75 5.05109 6.82902 4.86032 6.96967 4.71967C7.11032 4.57902 7.30109 4.5 7.5 4.5C7.69891 4.5 7.88968 4.57902 8.03033 4.71967C8.17098 4.86032 8.25 5.05109 8.25 5.25V6C8.25 6.19891 8.17098 6.38968 8.03033 6.53033C7.88968 6.67098 7.69891 6.75 7.5 6.75C7.30109 6.75 7.11032 6.67098 6.96967 6.53033C6.82902 6.38968 6.75 6.19891 6.75 6ZM14.49 15.6628C13.7717 16.2579 12.9934 16.7766 12.1678 17.2106C12.1157 17.2367 12.0583 17.2503 12 17.2503C11.9417 17.2503 11.8843 17.2367 11.8322 17.2106C11.0066 16.7766 10.2283 16.2579 9.51 15.6628C7.9275 14.3438 7.125 12.9853 7.125 11.625C7.12525 11.0512 7.31352 10.4932 7.66099 10.0366C8.00847 9.57993 8.49601 9.24972 9.04899 9.09648C9.60197 8.94324 10.1899 8.97542 10.7229 9.18809C11.2558 9.40076 11.7044 9.78221 12 10.2741C12.2956 9.78221 12.7442 9.40076 13.2771 9.18809C13.8101 8.97542 14.398 8.94324 14.951 9.09648C15.504 9.24972 15.9915 9.57993 16.339 10.0366C16.6865 10.4932 16.8747 11.0512 16.875 11.625C16.875 12.9853 16.0725 14.3438 14.49 15.6628ZM17.25 6C17.25 6.19891 17.171 6.38968 17.0303 6.53033C16.8897 6.67098 16.6989 6.75 16.5 6.75C16.3011 6.75 16.1103 6.67098 15.9697 6.53033C15.829 6.38968 15.75 6.19891 15.75 6V5.25C15.75 5.05109 15.829 4.86032 15.9697 4.71967C16.1103 4.57902 16.3011 4.5 16.5 4.5C16.6989 4.5 16.8897 4.57902 17.0303 4.71967C17.171 4.86032 17.25 5.05109 17.25 5.25V6Z" fill="#D44239"/>
</svg>
