<svg width="24" height="24" viewBox="0 0 24 24" fill="none" xmlns="http://www.w3.org/2000/svg">
<path d="M10.9856 17.6945C11.0905 17.799 11.1737 17.9232 11.2305 18.06C11.2873 18.1967 11.3165 18.3433 11.3165 18.4914C11.3165 18.6394 11.2873 18.7861 11.2305 18.9228C11.1737 19.0595 11.0905 19.1837 10.9856 19.2883L10.5056 19.7683C9.99607 20.2797 9.3902 20.685 8.72304 20.9608C8.05588 21.2366 7.34065 21.3775 6.61873 21.3751C5.53154 21.3755 4.46868 21.0534 3.5646 20.4495C2.66052 19.8457 1.95586 18.9872 1.53977 17.9828C1.12367 16.9784 1.01484 15.8732 1.22703 14.8069C1.43923 13.7406 1.96292 12.7612 2.73185 11.9926L5.98967 8.73482C6.68261 8.04198 7.54813 7.54694 8.49665 7.30096C9.44516 7.05498 10.4422 7.06698 11.3845 7.33574C12.3268 7.60449 13.1802 8.12023 13.8562 8.82955C14.5323 9.53887 15.0065 10.416 15.2297 11.3701C15.2666 11.5152 15.2743 11.6662 15.2521 11.8143C15.23 11.9623 15.1785 12.1045 15.1008 12.2324C15.023 12.3603 14.9205 12.4714 14.7992 12.5592C14.6779 12.647 14.5404 12.7097 14.3946 12.7436C14.2488 12.7776 14.0976 12.7821 13.9501 12.7569C13.8025 12.7317 13.6614 12.6772 13.5352 12.5968C13.4089 12.5164 13.2999 12.4116 13.2147 12.2885C13.1295 12.1655 13.0696 12.0266 13.0387 11.8801C12.9063 11.3169 12.6258 10.7993 12.2263 10.3808C11.8268 9.96225 11.3227 9.65803 10.7663 9.49956C10.2098 9.34109 9.62113 9.33412 9.06107 9.47937C8.50101 9.62462 7.98991 9.91682 7.5806 10.3258L4.32279 13.5836C3.86868 14.0373 3.55932 14.6155 3.43384 15.2451C3.30836 15.8747 3.3724 16.5273 3.61786 17.1205C3.86332 17.7137 4.27917 18.2207 4.81282 18.5776C5.34648 18.9344 5.97396 19.1249 6.61592 19.1251C7.04246 19.1264 7.46502 19.043 7.85912 18.8798C8.25322 18.7167 8.61104 18.4769 8.91185 18.1745L9.39092 17.6945C9.49545 17.5895 9.6197 17.5061 9.75653 17.4493C9.89337 17.3924 10.0401 17.3631 10.1883 17.3631C10.3364 17.3631 10.4832 17.3924 10.62 17.4493C10.7568 17.5061 10.8811 17.5895 10.9856 17.6945ZM21.2653 4.23482C20.2342 3.20405 18.8359 2.625 17.3779 2.625C15.92 2.625 14.5217 3.20405 13.4906 4.23482L13.0115 4.71388C12.8002 4.92522 12.6815 5.21187 12.6815 5.51075C12.6815 5.80964 12.8002 6.09628 13.0115 6.30763C13.2229 6.51897 13.5095 6.6377 13.8084 6.6377C14.1073 6.6377 14.3939 6.51897 14.6053 6.30763L15.0853 5.82763C15.6945 5.21846 16.5207 4.87623 17.3822 4.87623C18.2437 4.87623 19.0699 5.21846 19.679 5.82763C20.2882 6.4368 20.6304 7.26301 20.6304 8.1245C20.6304 8.986 20.2882 9.81221 19.679 10.4214L16.4156 13.6745C16.1148 13.9769 15.757 14.2167 15.3629 14.3798C14.9688 14.543 14.5462 14.6264 14.1197 14.6251C13.3879 14.6246 12.6779 14.3769 12.1046 13.9222C11.5313 13.4675 11.1284 12.8325 10.9612 12.1201C10.8936 11.8295 10.7133 11.5776 10.4599 11.4199C10.2066 11.2622 9.90095 11.2116 9.61029 11.2792C9.31963 11.3468 9.06774 11.5271 8.91003 11.7805C8.75233 12.0338 8.70172 12.3395 8.76935 12.6301C9.05164 13.8366 9.7332 14.9123 10.7035 15.6828C11.6738 16.4533 12.876 16.8735 14.115 16.8751H14.1197C14.8419 16.8771 15.5574 16.7359 16.2247 16.4596C16.8921 16.1833 17.498 15.7774 18.0075 15.2654L21.2653 12.0076C21.7757 11.4973 22.1806 10.8914 22.4569 10.2246C22.7332 9.55774 22.8753 8.84302 22.8753 8.12122C22.8753 7.39943 22.7332 6.6847 22.4569 6.01787C22.1806 5.35103 21.7757 4.74515 21.2653 4.23482Z" fill="#D44239"/>
</svg>
