<svg width="24" height="24" viewBox="0 0 24 24" fill="none" xmlns="http://www.w3.org/2000/svg">
<path d="M19.5 3.00001H7.81032C7.61326 2.99938 7.41805 3.03792 7.23602 3.11341C7.054 3.18889 6.88879 3.2998 6.75001 3.43969L3.43969 6.75001C3.2998 6.88879 3.18889 7.054 3.11341 7.23602C3.03792 7.41805 2.99938 7.61326 3.00001 7.81032V19.5C3.00001 19.8978 3.15804 20.2794 3.43935 20.5607C3.72065 20.842 4.10218 21 4.50001 21H19.5C19.8978 21 20.2794 20.842 20.5607 20.5607C20.842 20.2794 21 19.8978 21 19.5V4.50001C21 4.10218 20.842 3.72065 20.5607 3.43935C20.2794 3.15804 19.8978 3.00001 19.5 3.00001ZM12 17.25C11.4067 17.25 10.8266 17.0741 10.3333 16.7444C9.83995 16.4148 9.45543 15.9462 9.22837 15.3981C9.00131 14.8499 8.9419 14.2467 9.05765 13.6647C9.17341 13.0828 9.45913 12.5482 9.87869 12.1287C10.2982 11.7091 10.8328 11.4234 11.4147 11.3077C11.9967 11.1919 12.5999 11.2513 13.1481 11.4784C13.6962 11.7054 14.1648 12.09 14.4944 12.5833C14.8241 13.0766 15 13.6567 15 14.25C15 15.0457 14.6839 15.8087 14.1213 16.3713C13.5587 16.9339 12.7957 17.25 12 17.25ZM16.125 7.50001C16.125 7.59946 16.0855 7.69485 16.0152 7.76517C15.9448 7.8355 15.8495 7.87501 15.75 7.87501H8.25001C8.15055 7.87501 8.05517 7.8355 7.98484 7.76517C7.91452 7.69485 7.87501 7.59946 7.87501 7.50001V4.50001H16.125V7.50001Z" fill="#D44239"/>
</svg>
