<svg width="24" height="24" viewBox="0 0 24 24" fill="none" xmlns="http://www.w3.org/2000/svg">
<path d="M15.0056 3.75C13.4725 3.75024 11.9697 4.17718 10.6655 4.98303C9.36129 5.78888 8.30709 6.94183 7.62094 8.31281C7.05072 9.44943 6.75256 10.7031 6.75 11.9747C6.75294 12.1679 6.68282 12.3551 6.55367 12.4989C6.42453 12.6426 6.24587 12.7323 6.05344 12.75C5.95055 12.7574 5.84724 12.7434 5.74999 12.709C5.65273 12.6746 5.56362 12.6205 5.48821 12.5502C5.41281 12.4798 5.35273 12.3946 5.31175 12.2999C5.27076 12.2053 5.24974 12.1032 5.25 12C5.24927 10.951 5.41833 9.90875 5.75063 8.91375C5.77252 8.84995 5.77681 8.78143 5.76303 8.7154C5.74925 8.64937 5.71791 8.58828 5.67232 8.53856C5.62674 8.48885 5.56858 8.45235 5.50399 8.43292C5.4394 8.41348 5.37077 8.41182 5.30531 8.42813C4.00577 8.75203 2.8517 9.50083 2.02639 10.5556C1.20107 11.6104 0.751828 12.9107 0.75 14.25C0.75 17.5491 3.53906 20.25 6.84375 20.25H15C16.1105 20.2488 17.2094 20.0236 18.2309 19.588C19.2524 19.1523 20.1755 18.5151 20.9451 17.7145C21.7147 16.9139 22.3149 15.9662 22.7098 14.9283C23.1047 13.8904 23.2862 12.7834 23.2434 11.6737C23.0728 7.26937 19.4128 3.75 15.0056 3.75Z" fill="#D44239"/>
</svg>
