<svg width="24" height="24" viewBox="0 0 24 24" fill="none" xmlns="http://www.w3.org/2000/svg">
<path d="M21 5.25C21 5.44891 20.921 5.63968 20.7803 5.78033C20.6397 5.92098 20.4489 6 20.25 6H19.5V19.5C19.5 19.8978 19.342 20.2794 19.0607 20.5607C18.7794 20.842 18.3978 21 18 21H6C5.60218 21 5.22064 20.842 4.93934 20.5607C4.65804 20.2794 4.5 19.8978 4.5 19.5V6H3.75C3.55109 6 3.36032 5.92098 3.21967 5.78033C3.07902 5.63968 3 5.44891 3 5.25C3 5.05109 3.07902 4.86032 3.21967 4.71967C3.36032 4.57902 3.55109 4.5 3.75 4.5H20.25C20.4489 4.5 20.6397 4.57902 20.7803 4.71967C20.921 4.86032 21 5.05109 21 5.25ZM8.25 3H15.75C15.9489 3 16.1397 2.92098 16.2803 2.78033C16.421 2.63968 16.5 2.44891 16.5 2.25C16.5 2.05109 16.421 1.86032 16.2803 1.71967C16.1397 1.57902 15.9489 1.5 15.75 1.5H8.25C8.05109 1.5 7.86032 1.57902 7.71967 1.71967C7.57902 1.86032 7.5 2.05109 7.5 2.25C7.5 2.44891 7.57902 2.63968 7.71967 2.78033C7.86032 2.92098 8.05109 3 8.25 3Z" fill="#D44239"/>
</svg>
