<svg width="24" height="24" viewBox="0 0 24 24" fill="none" xmlns="http://www.w3.org/2000/svg">
<path d="M21.6497 20.6246C21.5838 20.7387 21.4891 20.8334 21.3751 20.8992C21.261 20.965 21.1316 20.9997 21 20.9996H2.99996C2.86838 20.9995 2.73914 20.9647 2.62523 20.8989C2.51133 20.833 2.41676 20.7383 2.35102 20.6243C2.28529 20.5103 2.2507 20.381 2.25073 20.2494C2.25077 20.1178 2.28542 19.9886 2.35121 19.8746C3.77903 17.4062 5.97934 15.6362 8.54715 14.7971C7.277 14.041 6.29016 12.8888 5.7382 11.5176C5.18624 10.1463 5.09967 8.63175 5.49178 7.20652C5.8839 5.78129 6.73301 4.52418 7.90874 3.62824C9.08446 2.7323 10.5218 2.24707 12 2.24707C13.4781 2.24707 14.9155 2.7323 16.0912 3.62824C17.2669 4.52418 18.116 5.78129 18.5081 7.20652C18.9003 8.63175 18.8137 10.1463 18.2617 11.5176C17.7098 12.8888 16.7229 14.041 15.4528 14.7971C18.0206 15.6362 20.2209 17.4062 21.6487 19.8746C21.7147 19.9886 21.7495 20.1178 21.7497 20.2495C21.7498 20.3811 21.7153 20.5105 21.6497 20.6246Z" fill="#D44239"/>
</svg>
